<svg id="Layer_2" data-name="Layer 2" xmlns="http://www.w3.org/2000/svg" viewBox="0 0 1400 980"><defs><style>.cls-1{fill:#efeeee;}.cls-1,.cls-2{fill-rule:evenodd;}.cls-2{fill:#dcdcdd;}</style></defs><title>human bones</title><path class="cls-1" d="M709.27,602.63c18.66,2.24,33.31-8.5,47.48-27.52,20-27,85.28-14.41,78.66,32.72-2.6,18.66-26.1,28.23-34,45.35-2.72,6,7.44,13.82,4,19.49-6.26,10-19.61-3.54-28.94,20.55s11.46,88.82-67.21,21V696.05l8.39.47c13.7.94,27.28-7.91,36-19.49s26.1-28.82,11.7-44.53c-10.51-11.46-11.7,11.93-18.78,15.36s-14.41.59-20.79,4.61-7.44,16.54-10.75,18-4,1.18-5.79,1.18Z"/><path class="cls-1" d="M806.83,682.47c5.79,6.26,2.25,11.22,8,14.76,7,4.25,16.18,1.18,24.33,1.89,9,5.2,16.53,21.38,13.94,22.21-16.77,0-20.67,82.33-19.61,112,8.86,13.11,10.87,18.07,6.73,26.1-2.72,5.43-11.58-4.49-17.6-4.72s-16.07,8.39-17.72,2.71c-4.61-14.41,10-19.13,10.16-29.64.59-38.51,2.36-114.81-8-115.4-9.68-3.66-25.63,9.57-26,6.26-.94-10.51,15.95-48.54,25.75-36.14Z"/><path class="cls-1" d="M756,698.88c4.61,3.07,5,10.4.83,16.54s-11,8.74-15.59,5.79-4.84-10.51-.83-16.65,11.1-8.62,15.59-5.67Z"/><path class="cls-2" d="M709.27,602.63c-18.54,2.24-33.31-8.5-47.36-27.52-20.08-27-85.4-14.41-78.78,32.72,2.72,18.66,26.1,28.23,34,45.35,2.84,6-7.44,13.82-3.9,19.49,6.26,10,19.61-3.54,28.94,20.55s-11.46,88.82,67.09,21V696.05l-8.39.47c-13.58.94-27.16-7.91-36-19.49s-26.1-28.82-11.57-44.53c10.51-11.46,11.57,11.93,18.78,15.36s14.29.59,20.79,4.61,7.44,16.54,10.75,18,4,1.18,5.67,1.18Z"/><path class="cls-2" d="M611.83,682.47c-5.79,6.26-2.36,11.22-8.15,14.76-6.85,4.25-16.18,1.18-24.21,1.89-9,5.2-16.53,21.38-14.05,22.21,16.89,0,20.79,82.33,19.73,112-8.86,13.11-10.87,18.07-6.85,26.1,2.83,5.43,11.57-4.49,17.72-4.72,5.91-.35,16.06,8.39,17.6,2.71,4.72-14.41-9.92-19.13-10-29.64-.59-38.51-2.36-114.81,8-115.4,9.68-3.66,25.63,9.57,26,6.26.94-10.51-15.95-48.54-25.75-36.14Z"/><path class="cls-2" d="M662.5,698.88c-4.49,3.07-4.84,10.4-.83,16.54s11.1,8.74,15.59,5.79,5-10.51.83-16.65-11-8.62-15.59-5.67Z"/></svg>