<svg id="Layer_2" data-name="Layer 2" xmlns="http://www.w3.org/2000/svg" viewBox="0 0 1400 980"><defs><style>.cls-1{fill:#efeeee;}.cls-1,.cls-2{fill-rule:evenodd;}.cls-2{fill:#dcdcdd;}</style></defs><title>human bones</title><path class="cls-1" d="M709.24,192.06a16.5,16.5,0,0,1,16.53,16.38V411.5a16.5,16.5,0,0,1-16.53,16.38Z"/><path class="cls-1" d="M725.77,208.44c12.65,2.73,27.16,5.46,40.09,4.74,21.12-1.15,19.68-18.39,28.45-22.13s14.95,7,11.07,16.81c-16.81,29.32-43.69,27.73-79.61,19.83Z"/><path class="cls-1" d="M725.77,256.87c12.65,2.73,27.16,5.46,40.09,4.6,21.12-1.15,19.68-18.25,28.45-22.13s14.95,7,11.07,17C788.56,285.61,761.69,284,725.77,276Z"/><path class="cls-1" d="M725.77,349.42c12.65,2.73,22.56,5.6,35.35,4.89C782.39,353,780.8,335.91,789.57,332s14.95,7,11.21,17c-16.81,29.31-39.09,27.59-75,19.69Z"/><path class="cls-1" d="M725.77,303.58c12.65,2.73,27.16,5.46,40.09,4.74,21.12-1.15,19.68-18.39,28.45-22.13s14.95,7,11.07,17c-16.81,29.32-43.69,27.59-79.61,19.69Z"/><path class="cls-1" d="M725.77,393.25c12.65,2.73,22.56,5.6,35.35,4.89,21.27-1.29,19.68-18.39,28.45-22.27s14.95,7.18,11.21,17c-16.81,29.32-39.09,27.59-75,19.69Z"/><path class="cls-1" d="M725.33,173.81c24.43-2.87,62.51-12.93,82.34,4.17,8.91-1.29,28.17-3,22.85-9.49-13.65-16.81-32.91-20.26-54.46-21.41-22.71-1.29-41.67,6.32-66.82,6.32V186.6a16.62,16.62,0,0,0,16.09-12.79Z"/><path class="cls-1" d="M709.24,119.06H718a11.84,11.84,0,0,1,11.78,11.78h0A11.84,11.84,0,0,1,718,142.63h-8.77Z"/><path class="cls-1" d="M709.24,433.77H718a11.84,11.84,0,0,1,11.78,11.79h0A11.87,11.87,0,0,1,718,457.49h-8.77Z"/><path class="cls-1" d="M709.24,463.81h6.47a10.21,10.21,0,0,1,10.2,10.06h0a10.24,10.24,0,0,1-10.2,10.2h-6.47Z"/><path class="cls-2" d="M709.24,192.06a16.37,16.37,0,0,0-16.38,16.38V411.5a16.37,16.37,0,0,0,16.38,16.38Z"/><path class="cls-2" d="M692.86,208.44c-12.65,2.73-27.16,5.46-40.09,4.74-21.12-1.15-19.69-18.39-28.45-22.13s-14.95,7-11.21,16.81c16.82,29.32,43.83,27.73,79.76,19.83Z"/><path class="cls-2" d="M692.86,256.87c-12.65,2.73-27.16,5.46-40.09,4.6-21.12-1.15-19.69-18.25-28.45-22.13s-14.95,7-11.21,17C629.92,285.61,656.93,284,692.86,276Z"/><path class="cls-2" d="M692.86,349.42c-12.65,2.73-22.56,5.6-35.49,4.89C636.24,353,637.82,335.91,628.91,332s-14.8,7-11.07,17c16.81,29.31,39.09,27.59,75,19.69Z"/><path class="cls-2" d="M692.86,303.58c-12.65,2.73-27.16,5.46-40.09,4.74-21.12-1.15-19.69-18.39-28.45-22.13s-14.95,7-11.21,17c16.82,29.32,43.83,27.59,79.76,19.69Z"/><path class="cls-2" d="M692.86,393.25c-12.65,2.73-22.56,5.6-35.49,4.89-21.12-1.29-19.54-18.39-28.45-22.27s-14.8,7.18-11.07,17c16.81,29.32,39.09,27.59,75,19.69Z"/><path class="cls-2" d="M693.29,173.81c-24.43-2.87-62.65-12.93-82.34,4.17-8.91-1.29-28.31-3-22.85-9.49,13.51-16.81,32.76-20.26,54.32-21.41,22.85-1.29,41.82,6.32,66.82,6.32V186.6a16.46,16.46,0,0,1-16-12.79Z"/><path class="cls-2" d="M709.24,119.06h-8.63a11.87,11.87,0,0,0-11.92,11.78h0a11.87,11.87,0,0,0,11.92,11.79h8.63Z"/><path class="cls-2" d="M709.24,433.77h-8.63a11.87,11.87,0,0,0-11.92,11.79h0a11.9,11.9,0,0,0,11.92,11.93h8.63Z"/><path class="cls-2" d="M709.24,463.81h-6.47a10.18,10.18,0,0,0-10.06,10.06h0a10.21,10.21,0,0,0,10.06,10.2h6.47Z"/></svg>