<svg id="Layer_2" data-name="Layer 2" xmlns="http://www.w3.org/2000/svg" viewBox="0 0 1400 980"><defs><style>.cls-1{fill:#efeeee;}.cls-1,.cls-2{fill-rule:evenodd;}.cls-2{fill:#dcdcdd;}</style></defs><title>human bones</title><path class="cls-2" d="M1059.36,614.43l6.85,192.41h0c15.47,10.16,28.59,41.69,1.06,54-5,2.25-10.27-13.35-15.71-13-5.2.24-2.72,11.1-11.1,11.93-10.28,1.18-18.43-13-20.08-23.27-1.3-8.39-.71-15,1.65-20.2-28.82-80-15.71-129.57-4.37-206.82-5.2-6.26-8-14.41-8.62-24.45-.59-10.28,9.57-24.57,19.84-23.39,8.5.94,5.43,8,10.75,8.27s9-10.75,13.94-8.62c9.45,4.25,19,13.46,20.08,23.74,1.18,10.87-9.57,19.61-14.29,29.41ZM1034.08,804l-6.14-171.15c-11.22,59.53-13.7,109.26,6.14,171.15Z"/><path class="cls-1" d="M1212.67,614.43l-6.85,192.41h0c-15.47,10.16-28.59,41.69-1.07,54,5,2.25,10.28-13.35,15.71-13s2.72,11.1,11.22,11.93c10.27,1.18,18.42-13,20-23.27,1.3-8.39.71-15-1.65-20.2,28.94-80,15.82-129.57,4.37-206.82,5.31-6.26,8.15-14.41,8.62-24.45.59-10.28-9.57-24.57-19.84-23.39-8.39.94-5.43,8-10.75,8.27s-9-10.75-13.94-8.62c-9.45,4.25-18.9,13.46-20.08,23.74-1.06,10.87,9.57,19.61,14.29,29.41ZM1238.07,804l6-171.15c11.34,59.53,13.7,109.26-6,171.15Z"/></svg>