<svg id="Layer_2" data-name="Layer 2" xmlns="http://www.w3.org/2000/svg" viewBox="0 0 1400 980"><defs><style>.cls-1{fill:#efeeee;}.cls-1,.cls-2{fill-rule:evenodd;}.cls-2{fill:#dcdcdd;}</style></defs><title>human bones</title><path class="cls-1" d="M282.65,119.06c105.12,4,124,89.18,105.83,155.08-8.15,29.17,2.72,30.36,4.13,45.59.24,6.26-5.43,15.36-12.4,16.54-40.28,0-40.75-1.3-49.37,36.26H282.65V321.39c4.61,5,9.33,16.77,14.29,12,9.57-9.21,2.36-30.95-14.29-44.41ZM362.14,303.2c10.39-15.36,16.89-41.81,3-55.63s-45.12-9.09-61.77-2.48c-14.53,10.63-3.31,33,1.65,46.42,6,16.42,42.87,19,57.17,11.69Z"/><path class="cls-1" d="M282.65,380.09v39c23.39-.83,45.12-8,62-22,16.06-13.35,24.68-36.26,30.24-54.81-4.73-.35-14.77-2.83-15.83,1.77-3,12-6.5,18.54-20.2,20.2-3.54,4.61,5.67,15.83.35,15.83Z"/><path class="cls-2" d="M282.65,119.06c-105.24,4-124.14,89.18-105.95,155.08,8.15,29.17-2.72,30.36-4.13,45.59-.24,6.26,5.43,15.36,12.52,16.54,40.16,0,40.63-1.3,49.25,36.26h48.31V321.39c-4.72,5-9.45,16.77-14.29,12-9.68-9.21-2.48-30.95,14.29-44.41ZM203,303.2c-10.39-15.36-16.89-41.81-3-55.63s45.12-9.09,61.77-2.48c14.53,10.63,3.31,33-1.65,46.42-6,16.42-42.88,19-57.17,11.69Z"/><path class="cls-2" d="M282.65,380.09v39c-23.51-.83-45.24-8-62.13-22-15.95-13.35-24.57-36.26-30.24-54.81,4.72-.35,14.76-2.83,15.83,1.77,3,12,6.5,18.54,20.2,20.2,3.54,4.61-5.67,15.83-.35,15.83Z"/><path class="cls-1" d="M709.24,192.06a16.5,16.5,0,0,1,16.53,16.38V411.5a16.5,16.5,0,0,1-16.53,16.38Z"/><path class="cls-1" d="M725.77,208.44c12.65,2.73,27.16,5.46,40.09,4.74,21.12-1.15,19.68-18.39,28.45-22.13s14.95,7,11.07,16.81c-16.81,29.32-43.69,27.73-79.61,19.83Z"/><path class="cls-1" d="M725.77,256.87c12.65,2.73,27.16,5.46,40.09,4.6,21.12-1.15,19.68-18.25,28.45-22.13s14.95,7,11.07,17C788.56,285.61,761.69,284,725.77,276Z"/><path class="cls-1" d="M725.77,349.42c12.65,2.73,22.56,5.6,35.35,4.89C782.39,353,780.8,335.91,789.57,332s14.95,7,11.21,17c-16.81,29.31-39.09,27.59-75,19.69Z"/><path class="cls-1" d="M725.77,303.58c12.65,2.73,27.16,5.46,40.09,4.74,21.12-1.15,19.68-18.39,28.45-22.13s14.95,7,11.07,17c-16.81,29.32-43.69,27.59-79.61,19.69Z"/><path class="cls-1" d="M725.77,393.25c12.65,2.73,22.56,5.6,35.35,4.89,21.27-1.29,19.68-18.39,28.45-22.27s14.95,7.18,11.21,17c-16.81,29.32-39.09,27.59-75,19.69Z"/><path class="cls-1" d="M725.33,173.81c24.43-2.87,62.51-12.93,82.34,4.17,8.91-1.29,28.17-3,22.85-9.49-13.65-16.81-32.91-20.26-54.46-21.41-22.71-1.29-41.67,6.32-66.82,6.32V186.6a16.62,16.62,0,0,0,16.09-12.79Z"/><path class="cls-1" d="M709.24,119.06H718a11.84,11.84,0,0,1,11.78,11.78h0A11.84,11.84,0,0,1,718,142.63h-8.77Z"/><path class="cls-1" d="M709.24,433.77H718a11.84,11.84,0,0,1,11.78,11.79h0A11.87,11.87,0,0,1,718,457.49h-8.77Z"/><path class="cls-1" d="M709.24,463.81h6.47a10.21,10.21,0,0,1,10.2,10.06h0a10.24,10.24,0,0,1-10.2,10.2h-6.47Z"/><path class="cls-2" d="M709.24,192.06a16.37,16.37,0,0,0-16.38,16.38V411.5a16.37,16.37,0,0,0,16.38,16.38Z"/><path class="cls-2" d="M692.86,208.44c-12.65,2.73-27.16,5.46-40.09,4.74-21.12-1.15-19.69-18.39-28.45-22.13s-14.95,7-11.21,16.81c16.82,29.32,43.83,27.73,79.76,19.83Z"/><path class="cls-2" d="M692.86,256.87c-12.65,2.73-27.16,5.46-40.09,4.6-21.12-1.15-19.69-18.25-28.45-22.13s-14.95,7-11.21,17C629.92,285.61,656.93,284,692.86,276Z"/><path class="cls-2" d="M692.86,349.42c-12.65,2.73-22.56,5.6-35.49,4.89C636.24,353,637.82,335.91,628.91,332s-14.8,7-11.07,17c16.81,29.31,39.09,27.59,75,19.69Z"/><path class="cls-2" d="M692.86,303.58c-12.65,2.73-27.16,5.46-40.09,4.74-21.12-1.15-19.69-18.39-28.45-22.13s-14.95,7-11.21,17c16.82,29.32,43.83,27.59,79.76,19.69Z"/><path class="cls-2" d="M692.86,393.25c-12.65,2.73-22.56,5.6-35.49,4.89-21.12-1.29-19.54-18.39-28.45-22.27s-14.8,7.18-11.07,17c16.81,29.32,39.09,27.59,75,19.69Z"/><path class="cls-2" d="M693.29,173.81c-24.43-2.87-62.65-12.93-82.34,4.17-8.91-1.29-28.31-3-22.85-9.49,13.51-16.81,32.76-20.26,54.32-21.41,22.85-1.29,41.82,6.32,66.82,6.32V186.6a16.46,16.46,0,0,1-16-12.79Z"/><path class="cls-2" d="M709.24,119.06h-8.63a11.87,11.87,0,0,0-11.92,11.78h0a11.87,11.87,0,0,0,11.92,11.79h8.63Z"/><path class="cls-2" d="M709.24,433.77h-8.63a11.87,11.87,0,0,0-11.92,11.79h0a11.9,11.9,0,0,0,11.92,11.93h8.63Z"/><path class="cls-2" d="M709.24,463.81h-6.47a10.18,10.18,0,0,0-10.06,10.06h0a10.21,10.21,0,0,0,10.06,10.2h6.47Z"/><path class="cls-1" d="M709.27,602.63c18.66,2.24,33.31-8.5,47.48-27.52,20-27,85.28-14.41,78.66,32.72-2.6,18.66-26.1,28.23-34,45.35-2.72,6,7.44,13.82,4,19.49-6.26,10-19.61-3.54-28.94,20.55s11.46,88.82-67.21,21V696.05l8.39.47c13.7.94,27.28-7.91,36-19.49s26.1-28.82,11.7-44.53c-10.51-11.46-11.7,11.93-18.78,15.36s-14.41.59-20.79,4.61-7.44,16.54-10.75,18-4,1.18-5.79,1.18Z"/><path class="cls-1" d="M806.83,682.47c5.79,6.26,2.25,11.22,8,14.76,7,4.25,16.18,1.18,24.33,1.89,9,5.2,16.53,21.38,13.94,22.21-16.77,0-20.67,82.33-19.61,112,8.86,13.11,10.87,18.07,6.73,26.1-2.72,5.43-11.58-4.49-17.6-4.72s-16.07,8.39-17.72,2.71c-4.61-14.41,10-19.13,10.16-29.64.59-38.51,2.36-114.81-8-115.4-9.68-3.66-25.63,9.57-26,6.26-.94-10.51,15.95-48.54,25.75-36.14Z"/><path class="cls-1" d="M756,698.88c4.61,3.07,5,10.4.83,16.54s-11,8.74-15.59,5.79-4.84-10.51-.83-16.65,11.1-8.62,15.59-5.67Z"/><path class="cls-2" d="M709.27,602.63c-18.54,2.24-33.31-8.5-47.36-27.52-20.08-27-85.4-14.41-78.78,32.72,2.72,18.66,26.1,28.23,34,45.35,2.84,6-7.44,13.82-3.9,19.49,6.26,10,19.61-3.54,28.94,20.55s-11.46,88.82,67.09,21V696.05l-8.39.47c-13.58.94-27.16-7.91-36-19.49s-26.1-28.82-11.57-44.53c10.51-11.46,11.57,11.93,18.78,15.36s14.29.59,20.79,4.61,7.44,16.54,10.75,18,4,1.18,5.67,1.18Z"/><path class="cls-2" d="M611.83,682.47c-5.79,6.26-2.36,11.22-8.15,14.76-6.85,4.25-16.18,1.18-24.21,1.89-9,5.2-16.53,21.38-14.05,22.21,16.89,0,20.79,82.33,19.73,112-8.86,13.11-10.87,18.07-6.85,26.1,2.83,5.43,11.57-4.49,17.72-4.72,5.91-.35,16.06,8.39,17.6,2.71,4.72-14.41-9.92-19.13-10-29.64-.59-38.51-2.36-114.81,8-115.4,9.68-3.66,25.63,9.57,26,6.26.94-10.51-15.95-48.54-25.75-36.14Z"/><path class="cls-2" d="M662.5,698.88c-4.49,3.07-4.84,10.4-.83,16.54s11.1,8.74,15.59,5.79,5-10.51.83-16.65-11-8.62-15.59-5.67Z"/><path class="cls-2" d="M1059.36,614.43l6.85,192.41h0c15.47,10.16,28.59,41.69,1.06,54-5,2.25-10.27-13.35-15.71-13-5.2.24-2.72,11.1-11.1,11.93-10.28,1.18-18.43-13-20.08-23.27-1.3-8.39-.71-15,1.65-20.2-28.82-80-15.71-129.57-4.37-206.82-5.2-6.26-8-14.41-8.62-24.45-.59-10.28,9.57-24.57,19.84-23.39,8.5.94,5.43,8,10.75,8.27s9-10.75,13.94-8.62c9.45,4.25,19,13.46,20.08,23.74,1.18,10.87-9.57,19.61-14.29,29.41ZM1034.08,804l-6.14-171.15c-11.22,59.53-13.7,109.26,6.14,171.15Z"/><path class="cls-1" d="M1212.67,614.43l-6.85,192.41h0c-15.47,10.16-28.59,41.69-1.07,54,5,2.25,10.28-13.35,15.71-13s2.72,11.1,11.22,11.93c10.27,1.18,18.42-13,20-23.27,1.3-8.39.71-15-1.65-20.2,28.94-80,15.82-129.57,4.37-206.82,5.31-6.26,8.15-14.41,8.62-24.45.59-10.28-9.57-24.57-19.84-23.39-8.39.94-5.43,8-10.75,8.27s-9-10.75-13.94-8.62c-9.45,4.25-18.9,13.46-20.08,23.74-1.06,10.87,9.57,19.61,14.29,29.41ZM1238.07,804l6-171.15c11.34,59.53,13.7,109.26-6,171.15Z"/><path class="cls-1" d="M1187.16,308.87l46.3,13.47c9,2.6,17.72,7.68,17,17l-5.31,62.72c-.71,9.33-7.56,16.66-17,17-12.28.35-55.63-35.08-58-93.31-.35-9.33,8-19.61,17-16.89Zm56-145.64h0a3.33,3.33,0,0,1,3.31,3.42V200a3.23,3.23,0,0,1-3.31,3.31h0a3.3,3.3,0,0,1-3.31-3.31V166.66a3.41,3.41,0,0,1,3.31-3.42Zm0,44.29h0a5.64,5.64,0,0,1,5.67,5.55v32.13a5.65,5.65,0,0,1-5.67,5.55h0a5.54,5.54,0,0,1-5.55-5.55V213.08a5.54,5.54,0,0,1,5.55-5.55Zm-18.78-63.9h0a3.38,3.38,0,0,1,3.31,3.31v33.43a3.38,3.38,0,0,1-3.31,3.31h0a3.3,3.3,0,0,1-3.31-3.31V146.93a3.3,3.3,0,0,1,3.31-3.31Zm0,44.29h0a5.54,5.54,0,0,1,5.55,5.55v41.34a5.54,5.54,0,0,1-5.55,5.55h0a5.54,5.54,0,0,1-5.55-5.55V193.47a5.54,5.54,0,0,1,5.55-5.55ZM1203.1,126h0a3.3,3.3,0,0,1,3.31,3.31v45.48a3.3,3.3,0,0,1-3.31,3.31h0a3.3,3.3,0,0,1-3.31-3.31V129.33a3.3,3.3,0,0,1,3.31-3.31Zm0,56.1h0a5.54,5.54,0,0,1,5.55,5.55v36.85a5.54,5.54,0,0,1-5.55,5.55h0a5.54,5.54,0,0,1-5.55-5.55V187.68a5.54,5.54,0,0,1,5.55-5.55Zm-22.32-63.07h0a3.23,3.23,0,0,1,3.31,3.31v45.48a3.23,3.23,0,0,1-3.31,3.31h0a3.3,3.3,0,0,1-3.31-3.31V122.37a3.3,3.3,0,0,1,3.31-3.31Zm0,56.1h0a5.54,5.54,0,0,1,5.55,5.55v35.55a5.64,5.64,0,0,1-5.55,5.67h0a5.64,5.64,0,0,1-5.55-5.67V180.72a5.54,5.54,0,0,1,5.55-5.55Zm-23-53.62h0a3.38,3.38,0,0,1,3.31,3.31v40.52a3.38,3.38,0,0,1-3.31,3.31h0a3.3,3.3,0,0,1-3.31-3.31V124.85a3.3,3.3,0,0,1,3.31-3.31Zm0,51.5h0a5.54,5.54,0,0,1,5.55,5.55v32.13a5.54,5.54,0,0,1-5.55,5.55h0a5.65,5.65,0,0,1-5.67-5.55V178.59a5.65,5.65,0,0,1,5.67-5.55Zm5.55,46.42,71.58,34c6.85,3.31,13.82,6.26,13.82,13.82v34c0,7.56-6.49,15.83-13.82,13.7l-70.51-20.44c-7.2-2.13-13.58-6.26-13.7-13.82l-1.18-47.48c-.24-7.56,7-17,13.82-13.82Z"/><path class="cls-2" d="M1084.87,308.87l-46.3,13.47c-9,2.6-17.72,7.68-16.89,17l5.2,62.72c.83,9.33,7.68,16.66,17,17,12.4.35,55.75-35.08,58-93.31.35-9.33-8-19.61-17-16.89Zm-56-145.64h0a3.4,3.4,0,0,0-3.31,3.42V200a3.3,3.3,0,0,0,3.31,3.31h0a3.3,3.3,0,0,0,3.3-3.31V166.66a3.4,3.4,0,0,0-3.3-3.42Zm0,44.29h0a5.55,5.55,0,0,0-5.55,5.55v32.13a5.55,5.55,0,0,0,5.55,5.55h0a5.55,5.55,0,0,0,5.55-5.55V213.08a5.55,5.55,0,0,0-5.55-5.55Zm18.9-63.9h0a3.4,3.4,0,0,0-3.43,3.31v33.43a3.4,3.4,0,0,0,3.43,3.31h0a3.38,3.38,0,0,0,3.31-3.31V146.93a3.38,3.38,0,0,0-3.31-3.31Zm0,44.29h0a5.65,5.65,0,0,0-5.67,5.55v41.34a5.65,5.65,0,0,0,5.67,5.55h0a5.54,5.54,0,0,0,5.55-5.55V193.47a5.54,5.54,0,0,0-5.55-5.55ZM1068.93,126h0a3.3,3.3,0,0,0-3.31,3.31v45.48a3.3,3.3,0,0,0,3.31,3.31h0a3.23,3.23,0,0,0,3.3-3.31V129.33a3.23,3.23,0,0,0-3.3-3.31Zm0,56.1h0a5.55,5.55,0,0,0-5.55,5.55v36.85a5.55,5.55,0,0,0,5.55,5.55h0a5.65,5.65,0,0,0,5.67-5.55V187.68a5.65,5.65,0,0,0-5.67-5.55Zm22.32-63.07h0a3.3,3.3,0,0,0-3.31,3.31v45.48a3.3,3.3,0,0,0,3.31,3.31h0a3.23,3.23,0,0,0,3.3-3.31V122.37a3.23,3.23,0,0,0-3.3-3.31Zm0,56.1h0a5.55,5.55,0,0,0-5.55,5.55v35.55a5.65,5.65,0,0,0,5.55,5.67h0a5.65,5.65,0,0,0,5.55-5.67V180.72a5.55,5.55,0,0,0-5.55-5.55Zm23.15-53.62h0a3.3,3.3,0,0,0-3.31,3.31v40.52a3.3,3.3,0,0,0,3.31,3.31h0a3.38,3.38,0,0,0,3.31-3.31V124.85a3.38,3.38,0,0,0-3.31-3.31Zm0,51.5h0a5.65,5.65,0,0,0-5.67,5.55v32.13a5.64,5.64,0,0,0,5.67,5.55h0a5.54,5.54,0,0,0,5.55-5.55V178.59a5.55,5.55,0,0,0-5.55-5.55Zm-5.55,46.42-71.7,34c-6.85,3.31-13.82,6.26-13.82,13.82v34c0,7.56,6.5,15.83,13.82,13.7l70.51-20.44c7.32-2.13,13.59-6.26,13.82-13.82l1.06-47.48c.24-7.56-6.85-17-13.7-13.82Z"/><path class="cls-1" d="M369.57,795.24l22.89,3.82a12.54,12.54,0,0,1,10.08,14.3h0a12.33,12.33,0,0,1-14.17,10.08l-22.89-4a12.23,12.23,0,0,1-10.08-14.17h0a12.33,12.33,0,0,1,14.17-10.08ZM294.23,703h0a3.89,3.89,0,0,1,5.18,2.72l2.32,7.9a4.54,4.54,0,0,1-2.86,5.59h0a4.14,4.14,0,0,1-5.18-2.72l-2.32-8a4.72,4.72,0,0,1,2.86-5.45Zm44.68-75.07h0a3.94,3.94,0,0,1,4.36,3.82l.54,8.31a4.61,4.61,0,0,1-4,4.77h0a4.15,4.15,0,0,1-4.49-3.82l-.55-8.31a4.63,4.63,0,0,1,4.09-4.77Zm82.42,14.85h0a4,4,0,0,1,4.09,4.22l-.41,8.31a4.58,4.58,0,0,1-4.5,4.22h0a4.13,4.13,0,0,1-4.09-4.22l.41-8.31a4.58,4.58,0,0,1,4.49-4.22Zm-41.28-17.84h0a4.13,4.13,0,0,1,4.09,4.22l-.41,8.31a4.58,4.58,0,0,1-4.49,4.22h0a4,4,0,0,1-4.09-4.22l.41-8.31a4.58,4.58,0,0,1,4.5-4.22Zm71.52,39.64h0a3.94,3.94,0,0,1,4,4.22l-.41,8.31a4.39,4.39,0,0,1-4.36,4.36h0a4,4,0,0,1-4.09-4.36l.41-8.31a4.59,4.59,0,0,1,4.5-4.22ZM449.13,686h0a4,4,0,0,1,2,5.59l-6.68,13.76a4.5,4.5,0,0,1-5.72,2h0a3.92,3.92,0,0,1-2-5.45l6.68-13.9a4.41,4.41,0,0,1,5.72-2Zm-28.2-23.3h0a4.57,4.57,0,0,1,3.54,5.59L420.25,685a5,5,0,0,1-5.86,3.68h0a4.74,4.74,0,0,1-3.54-5.72l4.22-16.62a5,5,0,0,1,5.86-3.68Zm-41.28-17.44h0a5.46,5.46,0,0,1,5.45,5.45v21a5.47,5.47,0,0,1-5.45,5.45h0a5.47,5.47,0,0,1-5.45-5.45v-21a5.46,5.46,0,0,1,5.45-5.45ZM341,648.51h0a5.5,5.5,0,0,1,6,4.9l2.18,20.84a5.3,5.3,0,0,1-4.77,6h0a5.47,5.47,0,0,1-6-4.76l-2.18-21a5.55,5.55,0,0,1,4.77-6Zm-40.32,73h0a5.48,5.48,0,0,1,7.36,2.18L320.93,748a5.41,5.41,0,0,1-2.32,7.22h0a5.44,5.44,0,0,1-7.36-2.18l-12.81-24.11a5.48,5.48,0,0,1,2.18-7.36Zm137-11.85h0a5.34,5.34,0,0,1,2.72,7.09l-8.86,20a5.34,5.34,0,0,1-7.08,2.72h0a5.55,5.55,0,0,1-2.86-7.22l8.86-19.89a5.49,5.49,0,0,1,7.22-2.73Zm-24.52-18.25h0A5.47,5.47,0,0,1,417,698.1l-7.49,26.43a5.39,5.39,0,0,1-6.68,3.68h0a5.47,5.47,0,0,1-3.82-6.67l7.5-26.3a5.47,5.47,0,0,1,6.67-3.81Zm-92.91,66.75h0a7.6,7.6,0,0,1,10.22,3.13L346.82,792a7.63,7.63,0,0,1-3.13,10.22h0a7.43,7.43,0,0,1-10.08-3.13L317.12,768.4a7.6,7.6,0,0,1,3.14-10.22Zm58.85-76.83h0a7.59,7.59,0,0,1,7.63,7.49V712a7.56,7.56,0,0,1-7.49,7.49h0a7.59,7.59,0,0,1-7.63-7.49V688.84a7.47,7.47,0,0,1,7.49-7.49Zm-33.65,1.91h0a7.61,7.61,0,0,1,8.31,6.67l2.45,23a7.69,7.69,0,0,1-6.68,8.31h0a7.69,7.69,0,0,1-8.31-6.68l-2.45-23a7.61,7.61,0,0,1,6.68-8.31Zm67.3,57.9-54.63-13.48c-5.45-1.36-12,2.45-12,7.9l.27,38.69c0,5.45,2.72,10.49,8.31,11.44l43.87,7.63c5.59,1,10.35-2.86,12-8l10.49-32.69c1.64-5.18-2.86-10.08-8.31-11.45Z"/><path class="cls-2" d="M195.6,795.24l-22.89,3.82a12.54,12.54,0,0,0-10.08,14.3h0a12.33,12.33,0,0,0,14.17,10.08l22.89-4a12.23,12.23,0,0,0,10.08-14.17h0a12.33,12.33,0,0,0-14.17-10.08ZM270.94,703h0a3.94,3.94,0,0,0-5.18,2.72l-2.32,7.9a4.55,4.55,0,0,0,2.86,5.59h0a4.14,4.14,0,0,0,5.18-2.72l2.32-8a4.58,4.58,0,0,0-2.86-5.45Zm-44.68-75.07h0a3.94,3.94,0,0,0-4.36,3.82l-.54,8.31a4.61,4.61,0,0,0,3.95,4.77h0a4.15,4.15,0,0,0,4.5-3.82l.54-8.31a4.52,4.52,0,0,0-4.09-4.77Zm-82.42,14.85h0a4,4,0,0,0-4.09,4.22l.41,8.31a4.58,4.58,0,0,0,4.5,4.22h0a4.13,4.13,0,0,0,4.08-4.22l-.41-8.31a4.58,4.58,0,0,0-4.5-4.22Zm41.28-17.84h0a4.13,4.13,0,0,0-4.09,4.22l.54,8.31a4.36,4.36,0,0,0,4.36,4.22h0a4,4,0,0,0,4.09-4.22l-.41-8.31a4.58,4.58,0,0,0-4.5-4.22Zm-71.52,39.64h0a3.94,3.94,0,0,0-3.95,4.22l.41,8.31a4.48,4.48,0,0,0,4.36,4.36h0a4,4,0,0,0,4.08-4.36l-.41-8.31a4.59,4.59,0,0,0-4.5-4.22ZM116,686h0a4,4,0,0,0-2,5.59l6.68,13.76a4.5,4.5,0,0,0,5.72,2h0a3.92,3.92,0,0,0,2-5.45L121.77,688a4.41,4.41,0,0,0-5.72-2Zm28.2-23.3h0a4.57,4.57,0,0,0-3.54,5.59L144.93,685a5,5,0,0,0,5.86,3.68h0a4.73,4.73,0,0,0,3.54-5.72l-4.22-16.62a5,5,0,0,0-5.86-3.68Zm41.28-17.44h0a5.46,5.46,0,0,0-5.45,5.45v21a5.47,5.47,0,0,0,5.45,5.45h0a5.47,5.47,0,0,0,5.45-5.45v-21a5.46,5.46,0,0,0-5.45-5.45Zm38.69,3.27h0a5.5,5.5,0,0,0-6,4.9L216,674.26a5.3,5.3,0,0,0,4.77,6h0a5.47,5.47,0,0,0,6-4.76l2.18-21a5.45,5.45,0,0,0-4.77-6Zm40.32,73h0a5.48,5.48,0,0,0-7.36,2.18L244.24,748a5.41,5.41,0,0,0,2.32,7.22h0a5.44,5.44,0,0,0,7.36-2.18l12.8-24.11a5.48,5.48,0,0,0-2.18-7.36Zm-137-11.85h0a5.34,5.34,0,0,0-2.73,7.09l8.85,20a5.34,5.34,0,0,0,7.08,2.72h0a5.55,5.55,0,0,0,2.86-7.22l-8.85-19.89a5.49,5.49,0,0,0-7.22-2.73ZM152,691.43h0a5.47,5.47,0,0,0-3.81,6.67l7.49,26.43a5.39,5.39,0,0,0,6.68,3.68h0a5.47,5.47,0,0,0,3.81-6.67l-7.49-26.3a5.47,5.47,0,0,0-6.68-3.81Zm92.91,66.75h0a7.6,7.6,0,0,0-10.22,3.13L218.35,792a7.63,7.63,0,0,0,3.13,10.22h0a7.63,7.63,0,0,0,10.22-3.13l16.35-30.65a7.6,7.6,0,0,0-3.13-10.22Zm-58.85-76.83h0a7.38,7.38,0,0,0-7.49,7.49L178.44,712a7.59,7.59,0,0,0,7.63,7.49h0a7.56,7.56,0,0,0,7.49-7.49V688.84a7.47,7.47,0,0,0-7.49-7.49Zm33.65,1.91h0a7.61,7.61,0,0,0-8.31,6.67L209,713a7.69,7.69,0,0,0,6.67,8.31h0a7.69,7.69,0,0,0,8.31-6.68l2.45-23a7.61,7.61,0,0,0-6.68-8.31Zm-67.3,57.9L207,727.67c5.45-1.36,12,2.45,12,7.9l-.27,38.69c0,5.45-2.72,10.49-8.31,11.44l-43.87,7.63c-5.58,1-10.35-2.86-12-8L144.11,752.6c-1.63-5.18,2.86-10.08,8.31-11.45Z"/></svg>