<svg id="Layer_2" data-name="Layer 2" xmlns="http://www.w3.org/2000/svg" viewBox="0 0 1400 980"><defs><style>.cls-1{fill:#efeeee;}.cls-1,.cls-2{fill-rule:evenodd;}.cls-2{fill:#dcdcdd;}</style></defs><title>human bones</title><path class="cls-1" d="M1187.16,308.87l46.3,13.47c9,2.6,17.72,7.68,17,17l-5.31,62.72c-.71,9.33-7.56,16.66-17,17-12.28.35-55.63-35.08-58-93.31-.35-9.33,8-19.61,17-16.89Zm56-145.64h0a3.33,3.33,0,0,1,3.31,3.42V200a3.23,3.23,0,0,1-3.31,3.31h0a3.3,3.3,0,0,1-3.31-3.31V166.66a3.41,3.41,0,0,1,3.31-3.42Zm0,44.29h0a5.64,5.64,0,0,1,5.67,5.55v32.13a5.65,5.65,0,0,1-5.67,5.55h0a5.54,5.54,0,0,1-5.55-5.55V213.08a5.54,5.54,0,0,1,5.55-5.55Zm-18.78-63.9h0a3.38,3.38,0,0,1,3.31,3.31v33.43a3.38,3.38,0,0,1-3.31,3.31h0a3.3,3.3,0,0,1-3.31-3.31V146.93a3.3,3.3,0,0,1,3.31-3.31Zm0,44.29h0a5.54,5.54,0,0,1,5.55,5.55v41.34a5.54,5.54,0,0,1-5.55,5.55h0a5.54,5.54,0,0,1-5.55-5.55V193.47a5.54,5.54,0,0,1,5.55-5.55ZM1203.1,126h0a3.3,3.3,0,0,1,3.31,3.31v45.48a3.3,3.3,0,0,1-3.31,3.31h0a3.3,3.3,0,0,1-3.31-3.31V129.33a3.3,3.3,0,0,1,3.31-3.31Zm0,56.1h0a5.54,5.54,0,0,1,5.55,5.55v36.85a5.54,5.54,0,0,1-5.55,5.55h0a5.54,5.54,0,0,1-5.55-5.55V187.68a5.54,5.54,0,0,1,5.55-5.55Zm-22.32-63.07h0a3.23,3.23,0,0,1,3.31,3.31v45.48a3.23,3.23,0,0,1-3.31,3.31h0a3.3,3.3,0,0,1-3.31-3.31V122.37a3.3,3.3,0,0,1,3.31-3.31Zm0,56.1h0a5.54,5.54,0,0,1,5.55,5.55v35.55a5.64,5.64,0,0,1-5.55,5.67h0a5.64,5.64,0,0,1-5.55-5.67V180.72a5.54,5.54,0,0,1,5.55-5.55Zm-23-53.62h0a3.38,3.38,0,0,1,3.31,3.31v40.52a3.38,3.38,0,0,1-3.31,3.31h0a3.3,3.3,0,0,1-3.31-3.31V124.85a3.3,3.3,0,0,1,3.31-3.31Zm0,51.5h0a5.54,5.54,0,0,1,5.55,5.55v32.13a5.54,5.54,0,0,1-5.55,5.55h0a5.65,5.65,0,0,1-5.67-5.55V178.59a5.65,5.65,0,0,1,5.67-5.55Zm5.55,46.42,71.58,34c6.85,3.31,13.82,6.26,13.82,13.82v34c0,7.56-6.49,15.83-13.82,13.7l-70.51-20.44c-7.2-2.13-13.58-6.26-13.7-13.82l-1.18-47.48c-.24-7.56,7-17,13.82-13.82Z"/><path class="cls-2" d="M1084.87,308.87l-46.3,13.47c-9,2.6-17.72,7.68-16.89,17l5.2,62.72c.83,9.33,7.68,16.66,17,17,12.4.35,55.75-35.08,58-93.31.35-9.33-8-19.61-17-16.89Zm-56-145.64h0a3.4,3.4,0,0,0-3.31,3.42V200a3.3,3.3,0,0,0,3.31,3.31h0a3.3,3.3,0,0,0,3.3-3.31V166.66a3.4,3.4,0,0,0-3.3-3.42Zm0,44.29h0a5.55,5.55,0,0,0-5.55,5.55v32.13a5.55,5.55,0,0,0,5.55,5.55h0a5.55,5.55,0,0,0,5.55-5.55V213.08a5.55,5.55,0,0,0-5.55-5.55Zm18.9-63.9h0a3.4,3.4,0,0,0-3.43,3.31v33.43a3.4,3.4,0,0,0,3.43,3.31h0a3.38,3.38,0,0,0,3.31-3.31V146.93a3.38,3.38,0,0,0-3.31-3.31Zm0,44.29h0a5.65,5.65,0,0,0-5.67,5.55v41.34a5.65,5.65,0,0,0,5.67,5.55h0a5.54,5.54,0,0,0,5.55-5.55V193.47a5.54,5.54,0,0,0-5.55-5.55ZM1068.93,126h0a3.3,3.3,0,0,0-3.31,3.31v45.48a3.3,3.3,0,0,0,3.31,3.31h0a3.23,3.23,0,0,0,3.3-3.31V129.33a3.23,3.23,0,0,0-3.3-3.31Zm0,56.1h0a5.55,5.55,0,0,0-5.55,5.55v36.85a5.55,5.55,0,0,0,5.55,5.55h0a5.65,5.65,0,0,0,5.67-5.55V187.68a5.65,5.65,0,0,0-5.67-5.55Zm22.32-63.07h0a3.3,3.3,0,0,0-3.31,3.31v45.48a3.3,3.3,0,0,0,3.31,3.31h0a3.23,3.23,0,0,0,3.3-3.31V122.37a3.23,3.23,0,0,0-3.3-3.31Zm0,56.1h0a5.55,5.55,0,0,0-5.55,5.55v35.55a5.65,5.65,0,0,0,5.55,5.67h0a5.65,5.65,0,0,0,5.55-5.67V180.72a5.55,5.55,0,0,0-5.55-5.55Zm23.15-53.62h0a3.3,3.3,0,0,0-3.31,3.31v40.52a3.3,3.3,0,0,0,3.31,3.31h0a3.38,3.38,0,0,0,3.31-3.31V124.85a3.38,3.38,0,0,0-3.31-3.31Zm0,51.5h0a5.65,5.65,0,0,0-5.67,5.55v32.13a5.64,5.64,0,0,0,5.67,5.55h0a5.54,5.54,0,0,0,5.55-5.55V178.59a5.55,5.55,0,0,0-5.55-5.55Zm-5.55,46.42-71.7,34c-6.85,3.31-13.82,6.26-13.82,13.82v34c0,7.56,6.5,15.83,13.82,13.7l70.51-20.44c7.32-2.13,13.59-6.26,13.82-13.82l1.06-47.48c.24-7.56-6.85-17-13.7-13.82Z"/></svg>