<svg id="Layer_2" data-name="Layer 2" xmlns="http://www.w3.org/2000/svg" viewBox="0 0 1400 980"><defs><style>.cls-1{fill:#efeeee;}.cls-1,.cls-2{fill-rule:evenodd;}.cls-2{fill:#dcdcdd;}</style></defs><title>human bones</title><path class="cls-1" d="M369.57,795.24l22.89,3.82a12.54,12.54,0,0,1,10.08,14.3h0a12.33,12.33,0,0,1-14.17,10.08l-22.89-4a12.23,12.23,0,0,1-10.08-14.17h0a12.33,12.33,0,0,1,14.17-10.08ZM294.23,703h0a3.89,3.89,0,0,1,5.18,2.72l2.32,7.9a4.54,4.54,0,0,1-2.86,5.59h0a4.14,4.14,0,0,1-5.18-2.72l-2.32-8a4.72,4.72,0,0,1,2.86-5.45Zm44.68-75.07h0a3.94,3.94,0,0,1,4.36,3.82l.54,8.31a4.61,4.61,0,0,1-4,4.77h0a4.15,4.15,0,0,1-4.49-3.82l-.55-8.31a4.63,4.63,0,0,1,4.09-4.77Zm82.42,14.85h0a4,4,0,0,1,4.09,4.22l-.41,8.31a4.58,4.58,0,0,1-4.5,4.22h0a4.13,4.13,0,0,1-4.09-4.22l.41-8.31a4.58,4.58,0,0,1,4.49-4.22Zm-41.28-17.84h0a4.13,4.13,0,0,1,4.09,4.22l-.41,8.31a4.58,4.58,0,0,1-4.49,4.22h0a4,4,0,0,1-4.09-4.22l.41-8.31a4.58,4.58,0,0,1,4.5-4.22Zm71.52,39.64h0a3.94,3.94,0,0,1,4,4.22l-.41,8.31a4.39,4.39,0,0,1-4.36,4.36h0a4,4,0,0,1-4.09-4.36l.41-8.31a4.59,4.59,0,0,1,4.5-4.22ZM449.13,686h0a4,4,0,0,1,2,5.59l-6.68,13.76a4.5,4.5,0,0,1-5.72,2h0a3.92,3.92,0,0,1-2-5.45l6.68-13.9a4.41,4.41,0,0,1,5.72-2Zm-28.2-23.3h0a4.57,4.57,0,0,1,3.54,5.59L420.25,685a5,5,0,0,1-5.86,3.68h0a4.74,4.74,0,0,1-3.54-5.72l4.22-16.62a5,5,0,0,1,5.86-3.68Zm-41.28-17.44h0a5.46,5.46,0,0,1,5.45,5.45v21a5.47,5.47,0,0,1-5.45,5.45h0a5.47,5.47,0,0,1-5.45-5.45v-21a5.46,5.46,0,0,1,5.45-5.45ZM341,648.51h0a5.5,5.5,0,0,1,6,4.9l2.18,20.84a5.3,5.3,0,0,1-4.77,6h0a5.47,5.47,0,0,1-6-4.76l-2.18-21a5.55,5.55,0,0,1,4.77-6Zm-40.32,73h0a5.48,5.48,0,0,1,7.36,2.18L320.93,748a5.41,5.41,0,0,1-2.32,7.22h0a5.44,5.44,0,0,1-7.36-2.18l-12.81-24.11a5.48,5.48,0,0,1,2.18-7.36Zm137-11.85h0a5.34,5.34,0,0,1,2.72,7.09l-8.86,20a5.34,5.34,0,0,1-7.08,2.72h0a5.55,5.55,0,0,1-2.86-7.22l8.86-19.89a5.49,5.49,0,0,1,7.22-2.73Zm-24.52-18.25h0A5.47,5.47,0,0,1,417,698.1l-7.49,26.43a5.39,5.39,0,0,1-6.68,3.68h0a5.47,5.47,0,0,1-3.82-6.67l7.5-26.3a5.47,5.47,0,0,1,6.67-3.81Zm-92.91,66.75h0a7.6,7.6,0,0,1,10.22,3.13L346.82,792a7.63,7.63,0,0,1-3.13,10.22h0a7.43,7.43,0,0,1-10.08-3.13L317.12,768.4a7.6,7.6,0,0,1,3.14-10.22Zm58.85-76.83h0a7.59,7.59,0,0,1,7.63,7.49V712a7.56,7.56,0,0,1-7.49,7.49h0a7.59,7.59,0,0,1-7.63-7.49V688.84a7.47,7.47,0,0,1,7.49-7.49Zm-33.65,1.91h0a7.61,7.61,0,0,1,8.31,6.67l2.45,23a7.69,7.69,0,0,1-6.68,8.31h0a7.69,7.69,0,0,1-8.31-6.68l-2.45-23a7.61,7.61,0,0,1,6.68-8.31Zm67.3,57.9-54.63-13.48c-5.45-1.36-12,2.45-12,7.9l.27,38.69c0,5.45,2.72,10.49,8.31,11.44l43.87,7.63c5.59,1,10.35-2.86,12-8l10.49-32.69c1.64-5.18-2.86-10.08-8.31-11.45Z"/><path class="cls-2" d="M195.6,795.24l-22.89,3.82a12.54,12.54,0,0,0-10.08,14.3h0a12.33,12.33,0,0,0,14.17,10.08l22.89-4a12.23,12.23,0,0,0,10.08-14.17h0a12.33,12.33,0,0,0-14.17-10.08ZM270.94,703h0a3.94,3.94,0,0,0-5.18,2.72l-2.32,7.9a4.55,4.55,0,0,0,2.86,5.59h0a4.14,4.14,0,0,0,5.18-2.72l2.32-8a4.58,4.58,0,0,0-2.86-5.45Zm-44.68-75.07h0a3.94,3.94,0,0,0-4.36,3.82l-.54,8.31a4.61,4.61,0,0,0,3.95,4.77h0a4.15,4.15,0,0,0,4.5-3.82l.54-8.31a4.52,4.52,0,0,0-4.09-4.77Zm-82.42,14.85h0a4,4,0,0,0-4.09,4.22l.41,8.31a4.58,4.58,0,0,0,4.5,4.22h0a4.13,4.13,0,0,0,4.08-4.22l-.41-8.31a4.58,4.58,0,0,0-4.5-4.22Zm41.28-17.84h0a4.13,4.13,0,0,0-4.09,4.22l.54,8.31a4.36,4.36,0,0,0,4.36,4.22h0a4,4,0,0,0,4.09-4.22l-.41-8.31a4.58,4.58,0,0,0-4.5-4.22Zm-71.52,39.64h0a3.94,3.94,0,0,0-3.95,4.22l.41,8.31a4.48,4.48,0,0,0,4.36,4.36h0a4,4,0,0,0,4.08-4.36l-.41-8.31a4.59,4.59,0,0,0-4.5-4.22ZM116,686h0a4,4,0,0,0-2,5.59l6.68,13.76a4.5,4.5,0,0,0,5.72,2h0a3.92,3.92,0,0,0,2-5.45L121.77,688a4.41,4.41,0,0,0-5.72-2Zm28.2-23.3h0a4.57,4.57,0,0,0-3.54,5.59L144.93,685a5,5,0,0,0,5.86,3.68h0a4.73,4.73,0,0,0,3.54-5.72l-4.22-16.62a5,5,0,0,0-5.86-3.68Zm41.28-17.44h0a5.46,5.46,0,0,0-5.45,5.45v21a5.47,5.47,0,0,0,5.45,5.45h0a5.47,5.47,0,0,0,5.45-5.45v-21a5.46,5.46,0,0,0-5.45-5.45Zm38.69,3.27h0a5.5,5.5,0,0,0-6,4.9L216,674.26a5.3,5.3,0,0,0,4.77,6h0a5.47,5.47,0,0,0,6-4.76l2.18-21a5.45,5.45,0,0,0-4.77-6Zm40.32,73h0a5.48,5.48,0,0,0-7.36,2.18L244.24,748a5.41,5.41,0,0,0,2.32,7.22h0a5.44,5.44,0,0,0,7.36-2.18l12.8-24.11a5.48,5.48,0,0,0-2.18-7.36Zm-137-11.85h0a5.34,5.34,0,0,0-2.73,7.09l8.85,20a5.34,5.34,0,0,0,7.08,2.72h0a5.55,5.55,0,0,0,2.86-7.22l-8.85-19.89a5.49,5.49,0,0,0-7.22-2.73ZM152,691.43h0a5.47,5.47,0,0,0-3.81,6.67l7.49,26.43a5.39,5.39,0,0,0,6.68,3.68h0a5.47,5.47,0,0,0,3.81-6.67l-7.49-26.3a5.47,5.47,0,0,0-6.68-3.81Zm92.91,66.75h0a7.6,7.6,0,0,0-10.22,3.13L218.35,792a7.63,7.63,0,0,0,3.13,10.22h0a7.63,7.63,0,0,0,10.22-3.13l16.35-30.65a7.6,7.6,0,0,0-3.13-10.22Zm-58.85-76.83h0a7.38,7.38,0,0,0-7.49,7.49L178.44,712a7.59,7.59,0,0,0,7.63,7.49h0a7.56,7.56,0,0,0,7.49-7.49V688.84a7.47,7.47,0,0,0-7.49-7.49Zm33.65,1.91h0a7.61,7.61,0,0,0-8.31,6.67L209,713a7.69,7.69,0,0,0,6.67,8.31h0a7.69,7.69,0,0,0,8.31-6.68l2.45-23a7.61,7.61,0,0,0-6.68-8.31Zm-67.3,57.9L207,727.67c5.45-1.36,12,2.45,12,7.9l-.27,38.69c0,5.45-2.72,10.49-8.31,11.44l-43.87,7.63c-5.58,1-10.35-2.86-12-8L144.11,752.6c-1.63-5.18,2.86-10.08,8.31-11.45Z"/></svg>