<svg id="Layer_2" data-name="Layer 2" xmlns="http://www.w3.org/2000/svg" viewBox="0 0 1400 980"><defs><style>.cls-1{fill:#efeeee;}.cls-1,.cls-2{fill-rule:evenodd;}.cls-2{fill:#dcdcdd;}</style></defs><title>human bones</title><path class="cls-1" d="M282.65,119.06c105.12,4,124,89.18,105.83,155.08-8.15,29.17,2.72,30.36,4.13,45.59.24,6.26-5.43,15.36-12.4,16.54-40.28,0-40.75-1.3-49.37,36.26H282.65V321.39c4.61,5,9.33,16.77,14.29,12,9.57-9.21,2.36-30.95-14.29-44.41ZM362.14,303.2c10.39-15.36,16.89-41.81,3-55.63s-45.12-9.09-61.77-2.48c-14.53,10.63-3.31,33,1.65,46.42,6,16.42,42.87,19,57.17,11.69Z"/><path class="cls-1" d="M282.65,380.09v39c23.39-.83,45.12-8,62-22,16.06-13.35,24.68-36.26,30.24-54.81-4.73-.35-14.77-2.83-15.83,1.77-3,12-6.5,18.54-20.2,20.2-3.54,4.61,5.67,15.83.35,15.83Z"/><path class="cls-2" d="M282.65,119.06c-105.24,4-124.14,89.18-105.95,155.08,8.15,29.17-2.72,30.36-4.13,45.59-.24,6.26,5.43,15.36,12.52,16.54,40.16,0,40.63-1.3,49.25,36.26h48.31V321.39c-4.72,5-9.45,16.77-14.29,12-9.68-9.21-2.48-30.95,14.29-44.41ZM203,303.2c-10.39-15.36-16.89-41.81-3-55.63s45.12-9.09,61.77-2.48c14.53,10.63,3.31,33-1.65,46.42-6,16.42-42.88,19-57.17,11.69Z"/><path class="cls-2" d="M282.65,380.09v39c-23.51-.83-45.24-8-62.13-22-15.95-13.35-24.57-36.26-30.24-54.81,4.72-.35,14.76-2.83,15.83,1.77,3,12,6.5,18.54,20.2,20.2,3.54,4.61-5.67,15.83-.35,15.83Z"/></svg>