<svg id="Layer_2" data-name="Layer 2" xmlns="http://www.w3.org/2000/svg" viewBox="0 0 1400 980"><defs><style>.cls-1{fill:#b2b3b3;}.cls-2{fill:#b2b2b3;}</style></defs><title>hand</title><path class="cls-1" d="M1042.42,834.35l89.86,18.54c26.22,6.06,43.77,36.84,39.57,69.42h0c-4.5,32.46-29.36,54.32-55.63,48.93l-89.86-19.42c-26.17-5.28-43.92-35.79-39.66-68.15l.09-.64h0c4.5-32.46,29.36-54.32,55.63-48.93ZM746.66,386.56h0c7.87-3.75,16.71,1.1,19.74,10.84a22.25,22.25,0,0,1,.6,2.37l9.11,38.35c2.73,11.3-2.21,23.27-11.23,27.14h0c-8.56,3.29-17.66-2.62-20.33-13.2l-9.11-38.84c-2.06-11,2.71-22.28,11.23-26.46ZM922.06,22.13h0c8.49-1.13,16.12,6.47,17,17q.07.78.08,1.57L941.29,81c.41,11.58-6.41,21.63-15.7,23.16h0c-9,.94-16.85-7.28-17.61-18.37v-.18l-2.16-40.34c-.35-11.72,6.64-21.8,16.06-23.16Zm323.55,72.09h0c8.67-.26,15.87,8.22,16.08,18.95q0,.77,0,1.54L1260.05,155c-.73,11.44-8.38,20.32-17.67,20.49h0c-9-.1-16.14-9.17-16.06-20.24,0-.08,0-.17,0-.25l1.61-40.34c.73-11.43,8.36-20.3,17.63-20.49Zm-162-86.61h0c9,.1,16.14,9.17,16.06,20.24,0,.08,0,.17,0,.25L1098,68.44c-.73,11.43-8.36,20.3-17.63,20.49h0c-8.67.26-15.87-8.22-16.08-18.95q0-.77,0-1.54l1.61-40.34c.73-11.44,8.38-20.32,17.67-20.49Zm280.76,192.44h0c8.54-.19,15.59,8.22,15.74,18.78q0,.85,0,1.7l-1.61,40.34c-.06,11.66-7.69,21.09-17.12,21.17h0c-8.67.29-15.88-8.17-16.11-18.9q0-1.14.06-2.27l1.61-40.34c.75-11.43,8.39-20.3,17.67-20.49Zm-9.58,104h0c8,4.09,11.84,15.44,8.53,25.35q-.3.91-.68,1.78L1336.36,398c-4.34,9.92-14.07,14.12-22.45,9.71h0c-7.88-3.95-11.67-15-8.48-24.79q.28-.85.63-1.67l26.22-67.48C1336.5,303.66,1346.35,299.39,1354.74,304ZM1244,190.92h0c9.72,2.4,16,14.08,14.09,26.1q-.08.52-.19,1l-16.57,81.12c-2.56,12.61-12.7,20.49-23,17.86h0c-10-2.87-16.25-15.23-13.93-27.61l0-.16L1221,208.59c2.56-12.61,12.7-20.49,23-17.86Zm-162-84.66h0c11.81,0,21.37,11.86,21.39,26.46V234.66c0,14.59-9.6,26.4-21.39,26.46h0c-11.8-.05-21.35-11.87-21.39-26.46V132.72C1060.61,118.12,1070.18,106.29,1082,106.26ZM930.26,122h0c11.8-1.41,22.32,9.21,23.55,23.79L962.37,247c1.56,14.08-6.39,27.06-17.78,29l-.95.13h0c-11.63,1.51-22.1-8.76-23.55-23.11l-8.56-101.95c-1.05-14.34,7.19-27.16,18.72-29.13ZM772,476.42h0c10.35-6.8,23.2-2.09,28.89,10.58l50.6,118c5.2,12.8,1.15,28.39-9.11,35h0c-10.34,6.91-23.26,2.18-28.89-10.58l-50.29-117c-5.5-12.8-1.69-28.69,8.56-35.73Zm537.8-57.53h0c10.6,5.75,15.42,21,10.77,34.16l-.1.26-34.78,97.09c-4.66,13.11-17,19.06-27.63,13.3l-.17-.09h0c-10.83-6-15.82-21.54-11.23-35L1281.45,432c4.92-13.27,17.55-19.18,28.34-13.25Zm-96.26-88.6h0c11.39,3.86,18.13,18.37,15.07,32.48l-29.4,128.31C1196,505,1184.23,513,1173,509h0c-11.32-3.9-18-18.33-15-32.38l29.44-127.68c3.17-14,14.83-22.22,26.18-18.5Zm-364.73,324h0c14.48-9.38,32.37-2.61,40.12,15.19l64.18,149.08c7.52,17.92,2.06,40-12.29,49.61h0c-14.22,9.35-31.88,2.68-39.45-14.91l-.12-.29-64.73-149c-7.58-17.92-2.08-40,12.33-49.61Zm231-373h0c16.36-.11,29.74,16.13,30,36.36V430.26c-.15,20-13.23,36.18-29.4,36.36h0c-16.36.11-29.74-16.13-30-36.36V317.82c0-20,13.05-36.31,29.25-36.36h.16Zm-132.1,9.27h0c16.19-2,30.69,12.4,32.62,32.38L990,434.67c1.44,20-10.14,37.79-26.22,40.34h0c-16.15,1.78-30.56-12.54-32.62-32.43l-9.62-111.66c-1.61-20,10.05-38,26.22-40.34Zm264.19,281.08L997.47,506.28c-21.39-6.6-47.11,11.89-47.11,38.35l1.06,187.82c0,26.46,10.68,50.92,32.62,55.54l172.22,37c21.94,4.85,40.63-13.88,47.11-38.84l41.18-158.7c6.44-25.15-11.23-48.93-32.62-55.59Z"/><path class="cls-2" d="M353.66,834.35,262.71,852.9c-26.54,6.06-44.3,36.84-40,69.42h0c4.55,32.46,29.71,54.32,56.3,48.93l90.95-19.42c26.49-5.28,44.46-35.79,40.14-68.15L410,883h0c-4.55-32.46-29.71-54.32-56.3-48.93ZM653,386.56h0c-8.11-3.65-17.11,1.42-20.1,11.33q-.28.92-.48,1.87l-9.22,38.35c-2.75,11.3,2.26,23.25,11.36,27.14h0c8.67,3.29,17.88-2.62,20.58-13.2l9.22-38.84c2.35-11.08-2.57-22.53-11.36-26.46ZM475.47,22.13h0c-8.6-1.13-16.31,6.47-17.24,17q-.07.78-.08,1.57L456,81c-.42,11.5,6.37,21.52,15.69,23.16h0c9.07,1,17.07-7.23,17.86-18.31l0-.23,2.15-40.34C492.3,33.48,485.11,23.23,475.47,22.13ZM148,94.22h0c-8.77-.26-16.06,8.22-16.27,18.95q0,.77,0,1.54L133.39,155c.74,11.44,8.48,20.32,17.88,20.49h0c9.06-.13,16.32-9.21,16.21-20.29,0-.07,0-.13,0-.2l-1.63-40.34c-.74-11.44-8.48-20.32-17.88-20.49ZM312,7.61h0c-9.06.1-16.34,9.17-16.25,20.24,0,.08,0,.17,0,.25l2.15,40.34c.3,11.42,8,20.49,17.32,20.49h0C324,89.19,331.3,80.7,331.51,70q0-.77,0-1.54L329.86,28.1C329.12,16.66,321.37,7.78,312,7.61ZM27.86,200.05h0c-8.65-.05-15.69,8.47-15.73,19q0,.73,0,1.46l1.63,40.34C14,272.44,21.65,281.74,31.12,282h0c8.77.26,16.06-8.22,16.27-18.95q0-1.11-.06-2.22L45.7,220.54c-.76-11.43-8.49-20.3-17.88-20.49Zm9.54,104h0c-8.11,4.09-12,15.44-8.64,25.35q.31.91.69,1.78L56,398c4.39,9.92,14.24,14.12,22.73,9.71h0c8-3.95,11.81-15,8.58-24.79q-.28-.85-.63-1.67L60.32,313.75c-4.27-10.09-14.24-14.35-22.73-9.71Zm112-113.11h0c-9.83,2.4-16.22,14.08-14.26,26.1q.09.52.19,1l17,81.12c2.59,12.61,12.86,20.49,23.28,17.86h0c10.12-2.84,16.43-15.16,14.11-27.52l0-.25-16.77-80.68c-2.59-12.61-12.86-20.49-23.28-17.86Zm164-84.66h0c-11.95,0-21.63,11.86-21.65,26.46V234.66c0,14.59,9.71,26.4,21.65,26.46h0c11.94-.05,21.61-11.87,21.65-26.46V132.72C335.08,118.12,325.4,106.29,313.45,106.26Zm153.72,15.87h0c-11.94-1.41-22.59,9.21-23.84,23.79L434.71,247c-1.58,14.08,6.47,27.06,18,29l1,.13h0c11.77,1.51,22.37-8.76,23.84-23.11l8.66-101.95c1.28-14.41-7.17-27.4-19-29.13Zm160.2,354.38h0c-10.48-6.8-23.48-2.09-29.24,10.58L546.91,605c-5.27,12.8-1.16,28.39,9.22,35h0c10.47,6.91,23.54,2.18,29.24-10.58l50.86-117c5.56-12.8,1.71-28.69-8.66-35.73ZM83,419h0c-10.74,5.73-15.64,21-11,34.13l.1.29,35.16,97.09c4.72,13.11,17.24,19.06,28,13.3l.17-.09h0c11-6,16-21.54,11.36-35L111.69,432.1c-5-13.27-17.77-19.18-28.69-13.25Zm97.38-88.6h0c-11.44,3.92-18.19,18.35-15.14,32.38L195,491.08C198.33,505,210.21,513,221.57,509h0C233,505,239.78,490.6,236.73,476.57L207,348.89C203.76,334.89,191.93,326.64,180.43,330.4Zm369.15,324h0c-14.66-9.38-32.76-2.61-40.61,15.19L444,818.62c-7.61,17.92-2.08,40,12.44,49.61h0c14.66,9.3,32.72,2.54,40.61-15.19l65-148.79c7.68-17.91,2.13-40-12.44-49.61Zm-233.82-373h0c-16.19-.3-29.52,15.5-29.76,35.28q0,.54,0,1.08l-.52,112.43c.22,20.24,13.75,36.47,30.32,36.36h0c16.37-.18,29.61-16.36,29.76-36.36V317.82c0-20-13.21-36.31-29.6-36.36h-.2Zm133.7,9.27h0c-16.39-2-31.06,12.4-33,32.38l-9.54,112c-1.46,20,10.24,37.76,26.5,40.34h0c16.35,1.78,30.93-12.54,33-32.43l9.73-111.66c1.63-20-10.17-38-26.54-40.34ZM182.06,571.81,399,506.33c21.65-6.6,47.68,11.89,47.68,38.35L445.56,732.5c0,26.46-10.81,50.92-33,55.54l-174.3,37c-22.17,4.85-41.12-13.88-47.68-38.84L149.08,627.35c-6.48-25.15,11.36-48.93,33-55.59Z"/></svg>